<svg id="icon" height="512" viewBox="0 0 128 128" width="512" xmlns="http://www.w3.org/2000/svg"><path d="m52.276 72.965c7.314 7.314 15.324 11.229 17.842 8.715l3.282-3.286a5.533 5.533 0 0 1 7.825 0l10.422 10.418a5.533 5.533 0 0 1 0 7.825l-6.92 6.92c-5.983 5.983-24.943-3.279-42.353-20.689-8.713-8.714-15.363-17.792-19.119-25.468-3.734-7.662-4.564-13.9-1.57-16.89l6.92-6.92a5.533 5.533 0 0 1 7.825 0l10.418 10.422a5.533 5.533 0 0 1 0 7.825l-3.287 3.287c-2.513 2.513 1.401 10.527 8.715 17.841z" fill="#2cbfae"/><path d="m106.133 32.143v21.463a5.509 5.509 0 0 1 -5.518 5.518h-22.633l-12.637 10.976v-10.975h-2.287a5.519 5.519 0 0 1 -5.518-5.518v-21.464a5.519 5.519 0 0 1 5.518-5.518h37.557a5.509 5.509 0 0 1 5.518 5.518z" fill="#eeefee"/><g fill="#575b6d"><path d="m73.562 49.405h-8.505a3.92 3.92 0 0 1 .728-2.242 13.722 13.722 0 0 1 2.667-2.633 17.055 17.055 0 0 0 2.658-2.5 3.375 3.375 0 0 0 .719-2.116 2.242 2.242 0 0 0 -.613-1.668 2.343 2.343 0 0 0 -1.726-.609 2.381 2.381 0 0 0 -1.646.613 2.569 2.569 0 0 0 -.771 1.8h-1.71a3.951 3.951 0 0 1 1.248-2.7 4.152 4.152 0 0 1 2.913-1.012 4.036 4.036 0 0 1 2.961 1.029 3.476 3.476 0 0 1 1.042 2.579 4.132 4.132 0 0 1 -.771 2.475 19.076 19.076 0 0 1 -3.056 2.99q-2.3 1.909-2.34 2.47h6.2z"/><path d="m83.628 46.339h-1.734v3.066h-1.657v-3.066h-5.483v-1.454l5.846-8.485h1.3v8.488h1.734zm-3.391-1.454v-5.885l-3.937 5.885z"/><path d="m89.444 36.563-3.714 12.842h-1.27l3.714-12.842z"/><path d="m98.616 37.728-4.669 11.677h-1.847l4.792-11.317h-6.592v-1.525h8.313z"/></g></svg>